<svg width="38" height="38" viewBox="0 0 38 38" fill="none" xmlns="http://www.w3.org/2000/svg">
<path fill-rule="evenodd" clip-rule="evenodd" d="M19 36.4167C9.5 32.1846 4.75 27.9624 4.75 23.75V7.91671C4.75 6.70135 5.21645 6.4189 6.50739 5.63717C6.89825 5.40048 7.3647 5.11802 7.91667 4.75004C8.17284 4.57926 13.5584 1.58337 19 1.58337C23.7425 1.58337 27.7083 3.16671 30.0833 4.75004C30.6353 5.11801 31.1017 5.40047 31.4926 5.63715L31.4926 5.63717C32.7836 6.4189 33.25 6.70135 33.25 7.91671C33.2812 8.26066 33.2659 15.5755 33.2561 20.2583L33.256 20.261C33.2527 21.8567 33.25 23.1464 33.25 23.75C33.25 27.9723 28.5 32.1945 19 36.4167ZM30.0833 23.75C30.0833 23.3854 30.0843 22.7744 30.0862 21.7783L30.0926 18.6856C30.0947 17.6851 30.0963 16.8265 30.0976 16.0072C30.1035 12.473 30.1019 9.43959 30.0985 8.50141L29.881 8.3664L29.8809 8.36634C29.3689 8.04872 28.7016 7.63476 28.3268 7.38487C25.9893 5.82657 22.5786 4.75004 19 4.75004C15.577 4.75004 11.1287 6.41456 9.67322 7.38487C9.29834 7.63478 8.631 8.04879 8.119 8.36642L8.11895 8.36645L7.91667 8.49199V23.75C7.91667 26.1384 11.4461 29.4006 19.0015 32.9365C26.5559 29.4085 30.0833 26.1476 30.0833 23.75ZM24.2137 13.1305L17.4167 19.9275L13.7863 16.2971L11.5471 18.5363L17.4167 24.4059L26.4529 15.3696L24.2137 13.1305Z" fill="#EBBC00"/>
</svg>
