<svg width="38" height="38" viewBox="0 0 38 38" fill="none" xmlns="http://www.w3.org/2000/svg">
<path fill-rule="evenodd" clip-rule="evenodd" d="M19.0002 36.4167C9.3812 36.4167 1.5835 28.6189 1.5835 19C1.5835 9.38102 9.3812 1.58331 19.0002 1.58331C28.6191 1.58331 36.4168 9.38102 36.4168 19C36.4168 28.6189 28.6191 36.4167 19.0002 36.4167ZM19.0002 33.25C26.8702 33.25 33.2502 26.87 33.2502 19C33.2502 11.1299 26.8702 4.74998 19.0002 4.74998C11.1301 4.74998 4.75016 11.1299 4.75016 19C4.75016 26.87 11.1301 33.25 19.0002 33.25ZM24.2139 13.1304L15.8335 21.5108L12.2031 17.8804L9.96391 20.1196L15.8335 25.9892L26.4531 15.3696L24.2139 13.1304Z" fill="#EBBC00"/>
</svg>
