<svg width="30" height="30" viewBox="0 0 30 30" fill="none" xmlns="http://www.w3.org/2000/svg">
<rect width="30" height="30" rx="15" fill="#565E66"/>
<path d="M17.8411 9.3195L16.3673 9.31714C14.7114 9.31714 13.6414 10.415 13.6414 12.1142V13.4039H12.1595C12.0314 13.4039 11.9277 13.5077 11.9277 13.6357V15.5043C11.9277 15.6323 12.0315 15.736 12.1595 15.736H13.6414V20.4509C13.6414 20.579 13.7451 20.6827 13.8731 20.6827H15.8066C15.9346 20.6827 16.0383 20.5789 16.0383 20.4509V15.736H17.771C17.8991 15.736 18.0028 15.6323 18.0028 15.5043L18.0035 13.6357C18.0035 13.5742 17.979 13.5154 17.9356 13.4718C17.8922 13.4283 17.8331 13.4039 17.7716 13.4039H16.0383V12.3106C16.0383 11.7852 16.1635 11.5184 16.848 11.5184L17.8409 11.518C17.9688 11.518 18.0725 11.4142 18.0725 11.2863V9.55125C18.0725 9.42344 17.9689 9.31974 17.8411 9.3195Z" fill="white"/>
</svg>
