<svg width="38" height="38" viewBox="0 0 38 38" fill="none" xmlns="http://www.w3.org/2000/svg">
<path fill-rule="evenodd" clip-rule="evenodd" d="M19.0002 36.4167C9.3812 36.4167 1.5835 28.619 1.5835 19C1.5835 9.38108 9.3812 1.58337 19.0002 1.58337C28.6191 1.58337 36.4168 9.38108 36.4168 19C36.4168 28.619 28.6191 36.4167 19.0002 36.4167ZM19.0002 33.25C26.8702 33.25 33.2502 26.8701 33.2502 19C33.2502 11.13 26.8702 4.75004 19.0002 4.75004C11.1301 4.75004 4.75016 11.13 4.75016 19C4.75016 26.8701 11.1301 33.25 19.0002 33.25ZM20.5835 23.75C20.5835 26.3734 22.7101 28.5 25.3335 28.5C27.9568 28.5 30.0835 26.3734 30.0835 23.75C30.0835 21.1267 27.9568 19 25.3335 19C22.7101 19 20.5835 21.1267 20.5835 23.75ZM25.3335 25.3334C26.2079 25.3334 26.9168 24.6245 26.9168 23.75C26.9168 22.8756 26.2079 22.1667 25.3335 22.1667C24.459 22.1667 23.7502 22.8756 23.7502 23.75C23.7502 24.6245 24.459 25.3334 25.3335 25.3334ZM7.91683 14.25C7.91683 16.8734 10.0435 19 12.6668 19C15.2902 19 17.4168 16.8734 17.4168 14.25C17.4168 11.6267 15.2902 9.50004 12.6668 9.50004C10.0435 9.50004 7.91683 11.6267 7.91683 14.25ZM12.6668 15.8334C13.5413 15.8334 14.2502 15.1245 14.2502 14.25C14.2502 13.3756 13.5413 12.6667 12.6668 12.6667C11.7924 12.6667 11.0835 13.3756 11.0835 14.25C11.0835 15.1245 11.7924 15.8334 12.6668 15.8334ZM16.0204 28.5L25.5204 9.50004H21.9799L12.4799 28.5H16.0204Z" fill="#EBBC00"/>
</svg>
