<svg width="30" height="30" viewBox="0 0 30 30" fill="none" xmlns="http://www.w3.org/2000/svg">
<rect width="30" height="30" rx="15" fill="#565E66"/>
<path d="M21.0307 15.2543C20.9577 14.9225 20.7959 14.6442 20.5457 14.4193C20.2954 14.1945 20.0073 14.0623 19.681 14.0229C18.6465 13.9105 17.0862 13.8543 15 13.8543C12.9138 13.8543 11.3563 13.9105 10.3273 14.0229C9.99562 14.0623 9.70605 14.1945 9.45855 14.4193C9.21111 14.6443 9.04804 14.9226 8.96929 15.2543C8.82312 15.9067 8.75 16.8906 8.75 18.2064C8.75 19.5446 8.82312 20.5287 8.96929 21.1585C9.04249 21.4901 9.20417 21.7686 9.45439 21.9934C9.70461 22.2183 9.99278 22.3476 10.3189 22.3814C11.3536 22.4995 12.914 22.5585 15 22.5585C17.0859 22.5585 18.6467 22.4995 19.681 22.3814C20.0072 22.3476 20.2939 22.2183 20.5414 21.9934C20.7889 21.7687 20.952 21.4901 21.0306 21.1585C21.1768 20.5061 21.25 19.5222 21.25 18.2064C21.25 16.8682 21.1768 15.8841 21.0307 15.2543ZM12.318 16.1063H11.4156V20.9054H10.5722V16.1063H9.68653V15.3135H12.3181L12.318 16.1063ZM14.5952 20.9054H13.8446V20.4498C13.541 20.7929 13.2541 20.9644 12.9842 20.9644C12.7256 20.9644 12.5625 20.8603 12.4951 20.6523C12.4502 20.5174 12.4276 20.312 12.4276 20.0365V16.7388H13.1782V19.8089C13.1782 19.9887 13.1811 20.0872 13.1867 20.1041C13.2036 20.2222 13.2626 20.2812 13.3639 20.2812C13.5156 20.2812 13.676 20.1631 13.8446 19.9269V16.7388H14.5953L14.5952 20.9054ZM17.4629 19.657C17.4629 20.0675 17.4377 20.3488 17.3873 20.5007C17.2915 20.8097 17.092 20.9644 16.7884 20.9644C16.5185 20.9644 16.2571 20.8097 16.0039 20.5007V20.9054H15.2534V15.3135H16.0039V17.1438C16.2458 16.8403 16.5072 16.6885 16.7884 16.6885C17.092 16.6885 17.2915 16.8459 17.3873 17.1608C17.4376 17.3069 17.4629 17.5852 17.4629 17.9957V19.657ZM20.3137 18.9655H18.804V19.6993C18.804 20.0873 18.9333 20.2812 19.192 20.2812C19.3775 20.2812 19.49 20.1801 19.5293 19.9775C19.5404 19.9213 19.5462 19.7498 19.5462 19.4631H20.3137V19.5727C20.3137 19.8483 20.308 20.0113 20.2968 20.062C20.2801 20.2136 20.2212 20.3655 20.1197 20.5173C19.9173 20.8154 19.6134 20.9644 19.2086 20.9644C18.8208 20.9644 18.5171 20.821 18.2978 20.5343C18.1348 20.3263 18.0533 20.0001 18.0533 19.5559V18.0967C18.0533 17.6525 18.1319 17.3263 18.2893 17.1183C18.5087 16.8316 18.8095 16.6882 19.192 16.6882C19.5688 16.6882 19.867 16.8316 20.086 17.1183C20.238 17.3263 20.3137 17.6525 20.3137 18.0967V18.9655Z" fill="white"/>
<path d="M16.3832 17.3711C16.2538 17.3711 16.1274 17.4332 16.0037 17.5567V20.0954C16.1274 20.219 16.2538 20.2808 16.3832 20.2808C16.6024 20.2808 16.7123 20.0926 16.7123 19.7157V17.9362C16.7122 17.5594 16.6026 17.3711 16.3832 17.3711Z" fill="white"/>
<path d="M19.1834 17.3711C18.9304 17.3711 18.8039 17.5624 18.8039 17.9445V18.3325H19.5629V17.9445C19.5629 17.5622 19.4364 17.3711 19.1834 17.3711Z" fill="white"/>
<path d="M11.8295 10.8095V13.0953H12.6728V10.8095L13.6932 7.44421H12.833L12.2595 9.66246L11.6607 7.44421H10.7667C10.9241 7.91658 11.1069 8.44227 11.3149 9.02147C11.5792 9.79737 11.7506 10.3935 11.8295 10.8095Z" fill="white"/>
<path d="M14.8228 13.1539C15.2108 13.1539 15.5087 13.0105 15.7167 12.7237C15.8743 12.5157 15.9529 12.1839 15.9529 11.7285V10.2524C15.9529 9.80268 15.8741 9.47364 15.7167 9.26558C15.5087 8.97882 15.2108 8.83543 14.8228 8.83543C14.4459 8.83543 14.1507 8.97882 13.9371 9.26558C13.7797 9.47364 13.701 9.80268 13.701 10.2524V11.7285C13.701 12.1783 13.7796 12.5101 13.9371 12.7237C14.1508 13.0105 14.4459 13.1539 14.8228 13.1539ZM14.46 10.1006C14.46 9.71261 14.5809 9.51861 14.8228 9.51861C15.0646 9.51861 15.1854 9.71261 15.1854 10.1006V11.8718C15.1854 12.2655 15.0646 12.4622 14.8228 12.4622C14.5809 12.4622 14.46 12.2654 14.46 11.8718V10.1006Z" fill="white"/>
<path d="M17.1422 13.1542C17.4235 13.1542 17.7132 12.9799 18.0111 12.6312V13.095H18.7786V8.88635H18.0111V12.0998C17.8424 12.3416 17.6822 12.4624 17.5302 12.4624C17.4289 12.4624 17.3698 12.4006 17.3531 12.2769C17.3474 12.2656 17.3446 12.1671 17.3446 11.9817V8.88635H16.5771V12.2095C16.5771 12.4962 16.5997 12.707 16.6446 12.842C16.7178 13.0501 16.8836 13.1542 17.1422 13.1542Z" fill="white"/>
</svg>
